<?xml version="1.0" encoding="UTF-8" standalone="no"?>
<!-- Created with Inkscape (http://www.inkscape.org/) -->

<svg
   xmlns:dc="http://purl.org/dc/elements/1.1/"
   xmlns:cc="http://creativecommons.org/ns#"
   xmlns:rdf="http://www.w3.org/1999/02/22-rdf-syntax-ns#"
   xmlns:svg="http://www.w3.org/2000/svg"
   xmlns="http://www.w3.org/2000/svg"
   version="1.1"
   width="1587.5625"
   height="572.68817"
   id="svg5486">
  <defs
     id="defs5488" />
  <metadata
     id="metadata5491">
    <rdf:RDF>
      <cc:Work
         rdf:about="">
        <dc:format>image/svg+xml</dc:format>
        <dc:type
           rdf:resource="http://purl.org/dc/dcmitype/StillImage" />
        <dc:title></dc:title>
      </cc:Work>
    </rdf:RDF>
  </metadata>
  <g
     transform="translate(562.5,-77.468083)"
     id="layer1">
    <path
       d="m 241.78797,77.962868 c -0.7818,-0.008 -1.5867,0.0742 -2.375,0.28125 -4.6749,1.22741 -8.9434,6.42161 -9.1563,11.25 -0.1388,3.1489 4.266,4.83934 5.3125,7.8125 0.687,1.95188 2.1169,4.896252 0.5,6.187502 -3.6199,2.89077 -8.8988,-5.745992 -13.25,-4.156252 -2.9502,1.077892 -2.9689,5.595992 -5.0625,7.937502 -3.3123,3.70456 -8.4438,5.5006 -11.5937,9.34375 -1.3624,1.66155 -2.1945,3.7271 -3,5.71875 -0.8617,2.12993 -0.7919,4.63339 -1.9376,6.625 -3.4645,6.02254 -9.4745,10.20068 -14.3124,15.1875 -4.279,4.41056 -9.7737,7.82064 -13.0313,13.03125 -0.9679,1.54827 -2.2455,3.39032 -1.7813,5.15625 1.2329,4.68991 13.0253,5.29446 10.9063,9.65625 -2.908,5.98596 -13.5209,-6.14036 -19.6563,-3.5625 -4.1095,1.72667 -4.8328,7.49082 -7.5,11.0625 -3.0868,4.13434 -6.0748,8.41172 -9.8124,11.96875 -4.562,4.34152 -10.1982,7.40728 -15.1876,11.25 -5.7372,4.41869 -13.5556,7.17563 -16.9687,13.5625 -0.9855,1.84417 0.2843,4.3246 -0.5313,6.25 -0.7073,1.67061 -3.5982,2.31108 -3.5624,4.125 0.027,1.38934 1.6581,2.30643 2.8437,3.03125 8.0362,4.913 18.0442,5.45825 27.1563,7.84375 12.3333,3.22893 24.4768,8.58937 37.2187,8.78125 l -18.7813,4.15625 -33.6874,6.03125 -64.999999,9.53125 -37.6876,5.96875 -54.2812,8.71875 -54.0938,6.4375 -35.343701,5.65625 -4.8437,1.125 0.6562,-0.40625 -14.6562,-2.78125 c -6.6967,-2.46269 -13.4168,-4.81153 -20.1876,-7.0625 -5.2797,-1.7554 -10.5783,-3.4266 -15.9062,-5.03125 -4.6946,-1.4139 -9.4234,-2.78285 -14.1562,-4.0625 l -13.125,-1 -15.4063,3.03125 -10.0937,5.0625 -4.3126,7.8125 0,5.8125 5.8126,3.53125 c 3.8982,0.99933 7.7803,2.09235 11.625,3.28125 3.5605,1.10108 9.771,1.55982 13.2812,2.8125 3.5953,1.28303 5.0166,3.2357 8.125,4.78125 l -1.3438,0.3125 -14.2812,1.25 -15.4375,1.21875 -28.2187,1.1875 -17.8438,-0.3125 -23.5312,-3.3125 -17.875,-4.3125 -19.1563,-4.96875 -16.8125,-9.53125 -0.4375,0 -30.0313,-20.15625 -30,-16.78125 -37.5,-18.21875 -40,-12.84375 -33.9374,-6.78125 -13.2188,-0.71875 -7.8438,5.34375 0,11.4375 1.0626,6.4375 -3.2188,13.9375 1.7812,15.34375 -0.3437,18.5625 3.2187,8.9375 7.5,4.65625 -8.9374,4.625 -1.4376,8.9375 7.1563,15.53125 3.375,12.6875 2.3437,7.84375 9.0938,6.25 -4.8125,5.71875 4.2813,9.28125 -0.1876,12.875 -11.9687,34.28125 2.3437,3.90625 9.625,6.09375 -17.3124,5.875 -5.9063,14.125 -3.0313,12.84375 -3.375,14.65625 -1.8124,11.25 -3.9063,12.65625 -4.6875,9.625 37.375,-1.03125 45.9688,-5.03125 45.4374,-12.125 29.8126,-10.09375 27.2812,-9.59375 35.0625,-10.5 3.8125,-1.125 23.25,-6.5625 -1.8438,-0.0625 10.8438,-3.3125 33.5625,-2.84375 40.7187,1.40625 34.2813,5 30.6563,10.875 c -3.1187,-0.9466 -6.5069,-1.94404 -10.2813,-3 l -9.4063,4.9375 c 2e-4,0 -6.7688,1.94715 -10.2187,2.65625 -3.5451,0.72867 -5.1385,0.84871 -8.7187,1.375 -2.1214,0.26872 -6.0465,0.83521 -7.2813,-0.0937 -1.2349,-0.92897 -3.3536,0.0813 -6.1875,3.53125 -4.4259,5.388 2.3298,7.91568 0.1562,13.09375 -2.0225,5.15973 -1.0291,11.86656 -1.3437,19.46875 -0.1766,6.14256 -0.028,11.56516 0.5,17.6875 0.507,5.87373 1.7311,11.65579 3.0313,17.40625 1.3105,5.79716 3.0428,11.51361 4.8124,17.1875 2.0427,6.54818 4.8978,12.81575 6.6876,19.4375 0.8786,3.25122 0.4939,6.87852 1.9687,9.90625 0.6192,1.27113 2.5899,1.81781 2.7813,3.21875 0.3078,3.69206 -4.5664,2.45448 3.75,8.3125 0.1491,1.97397 0.5194,3.37212 2.6874,4.71875 1.6263,1.20483 3.4352,2.20183 5.3438,2.875 2.4,0.84653 4.9551,1.41795 7.5,1.40625 3.6421,-0.0167 10.7188,-2.125 10.7188,-2.125 l 19.625,-8.5625 19.6562,-8.9375 23.5625,-10.375 20.718701,-11.0625 18.5626,-9.625 23.5937,-13.59375 17.5,-11.0625 15,-7.15625 12.8437004,-7.125 13.4687996,-3.1875 28.5938,-0.5 63.874999,5.8125 49,6.03125 43.4374,6.0625 8.4688,0.90625 -2.5625,1.125 -6.7813,5.1875 -2.8437,5.34375 -1.25,7.15625 -0.375,22.125 -5.5313,0.375 0,16.78125 -3.375,12.84375 -4.5624,13.15625 0.25,17.8125 3.0312,6.3125 4.0312,4.90625 6.4376,2.40625 6.3437,-2.4375 21.7813,-15.375 47.125,-44.28125 5.4062,-5.71875 5.7188,6.6875 2.5312,6.3125 4.2812,4.5625 7.0626,0 4.5624,-3.53125 7.0626,-8.34375 6.0624,-9.09375 6.3126,-6.3125 7.0624,-10.09375 6.5,-14.71875 0.5938,0.0625 30.9688,2.875 72.6874,-0.90625 55.3438,-4.625 62.5,-7.5 47.8438,-7.875 2.9374,-0.65625 -0.4374,18.875 0.4687,23.5625 0.9687,14.375 5.0938,9.125 6.6875,5.34375 5.375,-0.96875 7.0313,-4.15625 16.1874,-16.65625 24.75,-30.3125 24.75,-34.84375 4.8438,-6.03125 16.3438,-3.71875 65.375,-15 21.5,-6.5625 22.5,-4.03125 -0.4063,-0.15625 0.2187,-0.0312 15.9063,-1.5 24.2187,-6.28125 30.5938,-7.84375 55.4062,-14.09375 28.5,-9.5 27.00003,-15.5 12.5,-11 3.0626,-6.9375 -1.4063,-5.8125 -4.4375,-3.71875 -3.7812,-0.875 -7.5938,1.84365 -7.43753,2.03125 -8.2187,-0.53125 -6.7188,-2.375 20.78123,-9.125 10.5,-6 5.5,-6 0.7813,-6.8125 -2.8125,-9.03125 -6.7188,-8.125 -11.1562,-10.25 -12.71883,-8.125 -15.375,-8.65625 -16.8124,-8.84375 -21.1876,-8.84375 -19.8124,-7.0625 -19.625,-6.71875 -17.5,-5.3125 -11.125,-1.40625 -15.5626,-5.65625 -18.2187,-6.53125 -18.5625,-4.96875 c -7.1316,-1.59545 -11.3999,-1.46997 -19.7188,-2.875 l -16.3437,-3.625 -24,-5.90625 -23,-5.3125 -31.6563,-7.53125 -26.5312,-4.6875 -36.125,-5.25 -37.125,-5.3125 -34.5938,-2.9375 -47.5,-2.53125 -63.2187,-0.9375 -39.0937,-4.25 -10.875,0.34375 c 0.7217,-0.64093 1.2144,-1.3967 1.25,-2.34375 -3.5759,-7.6166 -13.7761,-11.61787 -20.4376,-17.6875 -12.793,-11.65668 -24.9656,-24.00154 -37.4687,-35.96875 -11.5881,-11.09139 -22.849,-22.50211 -34.8125,-33.1875 -7.4064,-6.61513 -15.0593,-12.95919 -22.8438,-19.125 -6.2988,-4.98936 -12.6851,-9.924482 -19.3124,-14.468752 -4.6315,-3.1756 -9.265,-6.38231 -14.2813,-8.90625 -5.0975,-2.56481 -10.3746,-7.38382 -15.8437,-7.4375 z"
       id="path5383"
       style="fill:#000000;fill-opacity:1;stroke:none;display:inline" />
  </g>
</svg>
